<?xml version="1.0" encoding="UTF-8"?>
<svg id="Layer_1" xmlns="http://www.w3.org/2000/svg" version="1.1" viewBox="0 0 600.4 200">
  <!-- Generator: Adobe Illustrator 30.0.0, SVG Export Plug-In . SVG Version: 2.1.1 Build 123)  -->
  <defs>
    <style>
      .st0 {
        fill: #2d3109;
      }
    </style>
  </defs>
  <g>
    <path class="st0" d="M109.26,52.73l12.44-12.02c1.01-.52,1.96-.4,2.93.15,5.99,3.41-6.8,10.98-7.96,14.14l-5.76,40.48,21.97-18.51c1.4-1.86.24-4.02.2-5.93-.06-2.93-.46-10.73.63-12.97.88-1.82,3.23-2.28,4.72-1.01.22.19,1.25,1.92,1.25,2.04v11.72l12.31-10.09c2.62-.96,4.84,1.45,4.05,4.05l-20.47,18.79h18.29c2.88,0,3.67,5.36,1.15,6.09-.72.21-3.47.44-4.43.51-7.48.49-15.49-.41-23.03,0l-8.84,7.19c4.59-.07,9.05-1.76,13.52-2.51.6-.1,1-.51.86.45l-16.03,31.24c1.92,19.99,4.53,39.92,7.45,59.78l25.15.13c2.99.67,3.37,5.58.06,6.05l-87.85-.06c-2.59-1.34-2.21-5.61.83-5.98l24.73-.14,8.26-61.61-20.55,4.11,11.33-24.25-6.62-4.91-24.87-.21c-3.29-1.02-1.6-5.98-.19-5.98h17.47c.15-.69-.22-.83-.62-1.23-4.12-4.01-14.49-10.38-17.23-14.42-1.92-2.83-.17-5.51,3.06-5.14l13.56,10.92v-9.25c0-2.74,5.65-4.37,6.18-.02s-.62,9.7.2,14.19l11.91,10.28,10.1-19.92-30.44-23.43c-2.13-1.99.54-5.53,2.98-5.08,1.48.27,11.27,8.77,11.81,8.16-.25-3.14-1.32-13.32.54-15.5,1.42-1.67,3.96-1.1,4.98.74,2.03,3.65-.33,15.09.85,19.7l12.54,9.04v-37.61c0-.12,1.02-1.85,1.25-2.04,1.81-1.54,5.33-.14,5.33,2.04v17.88ZM103.09,106.99l3.29-27.95-20.14,40.9,16.85-3.09-3.28,27.95,21.36-40.5c.17-.9-.36-.61-.97-.56-2.33.16-16.38,3.97-17.11,3.25Z"/>
    <path class="st0" d="M123.85,130.83l-.42-.81,2.85-5.38,41.13-.39c20.91-3.33,27.07-29,10.68-42.32-2.06-1.67-4.22-2.46-6.31-3.96,8.37-17.67-3.22-41.06-23.26-42.52-3.85-.28-7.62.33-11.32.65-2.93-6.2-5.81-11.18-11.31-15.42-18.31-14.13-43.27-5.62-50.81,15.55-8.31-1.46-15.66-1.27-23.08,3.02-11.28,6.52-16.8,20.23-13.73,32.89.48,2,1.61,3.75,1.88,5.8-1.82,1.59-4.26,2.35-6.31,3.99-13.44,10.81-12.19,32.17,3.47,40.09,1.25.63,5.61,2.24,6.8,2.24h24.46l-3.15,6.59c-9.5-.45-19.55,1.3-28.61-2.17-19.04-7.3-24.51-32.03-11.39-47.37,2.12-2.48,4.62-4.06,6.91-6.27-3.85-15.69,1.66-31.76,15.3-40.57,7.27-4.69,15.16-6,23.72-5.67C81.53,9.13,105.79,1.59,125.3,12.65c6.86,3.89,11.74,10.04,15.88,16.61,25.5-3.39,45.2,21.44,38.41,45.8,15.34,10.19,19.26,31.44,6.93,45.69-4.35,5.03-13.17,10.08-19.92,10.08h-42.75Z"/>
  </g>
  <g>
    <polygon class="st0" points="263.94 83.88 233.62 83.88 233.62 98.5 260.69 98.5 260.69 106.62 233.62 106.62 233.62 122.32 265.02 122.32 265.02 130.44 223.33 130.44 223.33 75.22 263.12 75.22 263.94 76.03 263.94 83.88"/>
    <path class="st0" d="M422.02,126.11v20.03h-9.74v-57.93h9.2v4.87c9.2-8.24,23.45-6.88,30.77,3.07,4.85,6.6,5.38,17.07,1.82,24.37-5.79,11.84-22.43,14-32.04,5.59ZM442.94,99.77c-1.01-1.06-3.37-2.7-4.78-3.07-20.29-5.3-22.04,26.83-3.4,26.19,11.57-.4,15.48-15.45,8.18-23.12Z"/>
    <path class="st0" d="M554.11,71.97l.55,34.65,19.21-18.41h11.64l-17.32,18.14,17.88,22.72.52,1.92h-9.47c-.7,0-1.96-.17-2.44-.78l-13.34-17.05-6.69,6.19v11.1h-10.29v-57.66l.81-.81h8.93Z"/>
    <path class="st0" d="M501.06,130.17c-.57,1.84-7.43-.4-9.18.25-.23-.23-.06-5.05-1.1-4.31.02.67-.38,1.17-.88,1.55-10.89,8.2-31.87,2.4-26.61-13.61,1.02-3.1,3.39-5.37,6.37-6.62,1.47-.62,6.46-1.89,7.85-1.89h13.26c.12-13.19-15.62-10.53-23.27-5.42l-3.19-7.5c9.59-6.58,30.49-8.04,35.22,4.96.47,1.3,1.52,5.44,1.52,6.6v25.99ZM490.77,112.57h-14.35c-.18,0-2.74,1.69-2.99,2.03-3.3,4.31.27,8.9,5.13,9.37,7.62.73,13.43-3.24,12.21-11.39Z"/>
    <path class="st0" d="M361.87,109.52c0,12.37-10.03,22.39-22.39,22.39s-22.39-10.03-22.39-22.39,10.03-22.39,22.39-22.39,22.39,10.03,22.39,22.39ZM352.51,109.55c0-7.23-5.86-13.09-13.09-13.09s-13.09,5.86-13.09,13.09,5.86,13.09,13.09,13.09,13.09-5.86,13.09-13.09Z"/>
    <path class="st0" d="M383.47,87.83c6.01-.59,13.47.43,18.48,3.96l-3.47,7.2c-3.95-3.24-18.93-5.62-20.5.7-.43,1.73.76,3.29,2.16,4.14,3.07,1.88,11.41,2.12,15.72,3.77,3.97,1.52,7.08,4.08,7.7,8.54,2.51,18.11-26.3,17.86-36.18,10.16l3.53-7.18c5.78,2.9,13.23,5.73,19.7,3.47,5.8-2.02,3.58-6.56-1.61-8.13-6.14-1.85-18.62-1.79-20.34-9.97-2.18-10.33,5.47-15.73,14.81-16.65Z"/>
    <path class="st0" d="M312.05,97.88l-6.71,3.86c-1.19-.03-2.94-2.68-4.08-3.48-6.91-4.84-16.84-1.51-19.21,6.71-4.32,15.02,13.71,25.12,22.8,11.9,2.98,1.88,9.21,2.56,6.19,6.8-4.85,6.8-14.56,8.88-22.33,7.17-25.95-5.71-21.39-44.97,7.44-43.16,5.86.37,14.66,3.9,15.91,10.2Z"/>
    <path class="st0" d="M536.79,87.67v9.74c-3.26-.26-5.87-.66-8.84,1.17-2.02,1.24-5.23,5.41-5.23,7.76v24.09c-2.25.04-4.51-.07-6.76,0-.69.02-3.52,1.12-3.52-.27v-39.52c0-.49.29-2.09.81-2.44h8.12l.73.9.35,4.51c3.58-4.33,8.83-5.88,14.35-5.95Z"/>
  </g>
</svg>