<?xml version="1.0" encoding="UTF-8"?>
<svg id="Layer_1" xmlns="http://www.w3.org/2000/svg" version="1.1" viewBox="0 0 200 200">
  <!-- Generator: Adobe Illustrator 30.0.0, SVG Export Plug-In . SVG Version: 2.1.1 Build 123)  -->
  <defs>
    <style>
      .st0 {
        fill: #2d3109;
      }
    </style>
  </defs>
  <path class="st0" d="M103.23,52.71l12.44-12.02c1.01-.52,1.96-.4,2.93.15,5.99,3.41-6.8,10.98-7.96,14.14l-5.76,40.48,21.97-18.51c1.4-1.86.24-4.02.2-5.93-.06-2.93-.46-10.73.63-12.97.88-1.82,3.23-2.28,4.72-1.01.22.19,1.25,1.92,1.25,2.04v11.72l12.31-10.09c2.62-.96,4.84,1.45,4.05,4.05l-20.47,18.79h18.29c2.88,0,3.67,5.36,1.15,6.09-.72.21-3.47.44-4.43.51-7.48.49-15.49-.41-23.03,0l-8.84,7.19c4.59-.07,9.05-1.76,13.52-2.51.6-.1,1-.51.86.45l-16.03,31.24c1.92,19.99,4.53,39.92,7.45,59.78l25.15.13c2.99.67,3.37,5.58.06,6.05l-87.85-.06c-2.59-1.34-2.21-5.61.83-5.98l24.73-.14,8.26-61.61-20.55,4.11,11.33-24.25-6.62-4.91-24.87-.21c-3.29-1.02-1.6-5.98-.19-5.98h17.47c.15-.69-.22-.83-.62-1.23-4.12-4.01-14.49-10.38-17.23-14.42-1.92-2.83-.17-5.51,3.06-5.14l13.56,10.92v-9.25c0-2.74,5.65-4.37,6.18-.02s-.62,9.7.2,14.19l11.91,10.28,10.1-19.92-30.44-23.43c-2.13-1.99.54-5.53,2.98-5.08,1.48.27,11.27,8.77,11.81,8.16-.25-3.14-1.32-13.32.54-15.5,1.42-1.67,3.96-1.1,4.98.74,2.03,3.65-.33,15.09.85,19.7l12.54,9.04v-37.61c0-.12,1.02-1.85,1.25-2.04,1.81-1.54,5.33-.14,5.33,2.04v17.88-.05ZM97.06,106.97l3.29-27.95-20.14,40.9,16.85-3.09-3.28,27.95,21.36-40.5c.17-.9-.36-.61-.97-.56-2.33.16-16.38,3.97-17.11,3.25Z"/>
  <path class="st0" d="M117.82,130.81l-.42-.81,2.85-5.38,41.13-.39c20.91-3.33,27.07-29,10.68-42.32-2.06-1.67-4.22-2.46-6.31-3.96,8.37-17.67-3.22-41.06-23.26-42.52-3.85-.28-7.62.33-11.32.65-2.93-6.2-5.81-11.18-11.31-15.42-18.31-14.13-43.27-5.62-50.81,15.55-8.31-1.46-15.66-1.27-23.08,3.02-11.28,6.52-16.8,20.23-13.73,32.89.48,2,1.61,3.75,1.88,5.8-1.82,1.59-4.26,2.35-6.31,3.99-13.44,10.81-12.19,32.17,3.47,40.09,1.25.63,5.61,2.24,6.8,2.24h24.46l-3.15,6.59c-9.5-.45-19.55,1.3-28.61-2.17-19.04-7.3-24.51-32.03-11.39-47.37,2.12-2.48,4.62-4.06,6.91-6.27-3.85-15.69,1.66-31.76,15.3-40.57,7.27-4.69,15.16-6,23.72-5.67C75.5,9.11,99.76,1.57,119.27,12.63c6.86,3.89,11.74,10.04,15.88,16.61,25.5-3.39,45.2,21.44,38.41,45.8,15.34,10.19,19.26,31.44,6.93,45.69-4.35,5.03-13.17,10.08-19.92,10.08h-42.75Z"/>
</svg>